# xmcd
#
# Track frame offsets: 
#        150
#        26501
#        46197
#        63776
#        80125
#        95715
#        110655
#        128960
#        149853
#        174682
#
# Disc length: 2614 seconds
#
# Revision: 0
# Processed by: cddbd v1.5.2PL0 Copyright (c) Steve Scherf et al.
# Submitted via: ExactAudioCopy v0.95a5
#
DISCID=930a340a
DTITLE=Jan Michael Reibach - Native Blues
DYEAR=2003
DGENRE=Native American
TTITLE0=Waiting
TTITLE1=Dimensions
TTITLE2=Cloudy
TTITLE3=Spirit Brothers
TTITLE4=2 Hawks
TTITLE5=Old Willow
TTITLE6=Lonely Night
TTITLE7=Great Mystery
TTITLE8=Love 2 Long
TTITLE9=Tears Like Rain
EXTD=
EXTT0=
EXTT1=
EXTT2=
EXTT3=
EXTT4=
EXTT5=
EXTT6=
EXTT7=
EXTT8=
EXTT9=
PLAYORDER=
